<svg width="60" height="61" viewBox="0 0 60 61" fill="none" xmlns="http://www.w3.org/2000/svg">
<g clip-path="url(#clip0_23_215)">
<path d="M0.781738 0.795471H59.7817V60.7955H0.781738V0.795471Z" fill="#F7DF1E"/>
<path d="M16.2952 50.9358L20.81 48.157C21.6812 49.7276 22.4736 51.0565 24.3742 51.0565C26.1961 51.0565 27.345 50.3318 27.345 47.5127V28.3413H32.8894V47.5924C32.8894 53.4323 29.5231 56.0906 24.6118 56.0906C20.1765 56.0906 17.6019 53.7546 16.2949 50.9353M35.9009 50.3316L40.4153 47.6735C41.6038 49.6472 43.1485 51.097 45.8809 51.097C48.1784 51.097 49.6433 49.9289 49.6433 48.3178C49.6433 46.3847 48.1383 45.6998 45.6036 44.5725L44.2178 43.9678C40.2176 42.2365 37.5642 40.0615 37.5642 35.4701C37.5642 31.241 40.7324 28.0188 45.6831 28.0188C49.2079 28.0188 51.7426 29.2676 53.5643 32.5298L49.2471 35.3494C48.2964 33.6176 47.2672 32.933 45.6829 32.933C44.059 32.933 43.0293 33.9802 43.0293 35.3494C43.0293 37.0409 44.059 37.7259 46.4352 38.7731L47.8212 39.3771C52.5343 41.4314 55.1877 43.5255 55.1877 48.2374C55.1877 53.3126 51.2669 56.0913 45.9996 56.0913C40.8511 56.0913 37.5243 53.5943 35.9007 50.3318" fill="black"/>
</g>
<defs>
<clipPath id="clip0_23_215">
<rect width="59" height="60" fill="white" transform="translate(0.781738 0.795471)"/>
</clipPath>
</defs>
</svg>
