<svg width="57" height="57" viewBox="0 0 57 57" fill="none" xmlns="http://www.w3.org/2000/svg">
<g clip-path="url(#clip0_23_200)">
<path d="M28.7461 0.811279C42.9281 0.811279 42.0426 6.98555 42.0426 6.98555L42.0269 13.3823H28.4933V15.3028H47.4022C47.4022 15.3028 56.4773 14.2695 56.4773 28.6351C56.4773 43.0012 48.5564 42.4917 48.5564 42.4917H43.8292V35.8253C43.8292 35.8253 44.084 27.8733 36.0347 27.8733H22.6117C22.6117 27.8733 15.0703 27.9957 15.0703 20.5562V8.25555C15.0703 8.25555 13.9249 0.811279 28.7461 0.811279ZM36.2086 5.11296C35.8888 5.11267 35.572 5.17569 35.2765 5.29843C34.981 5.42116 34.7125 5.60119 34.4863 5.82821C34.2602 6.05524 34.0809 6.3248 33.9586 6.62148C33.8364 6.91816 33.7736 7.23613 33.7739 7.55719C33.7736 7.87825 33.8364 8.19622 33.9586 8.4929C34.0809 8.78958 34.2602 9.05915 34.4863 9.28617C34.7125 9.5132 34.981 9.69323 35.2765 9.81596C35.572 9.93869 35.8888 10.0017 36.2086 10.0014C36.5284 10.0017 36.8451 9.93869 37.1406 9.81596C37.4361 9.69323 37.7047 9.5132 37.9308 9.28617C38.1569 9.05915 38.3363 8.78958 38.4585 8.4929C38.5808 8.19622 38.6436 7.87825 38.6433 7.55719C38.6436 7.23613 38.5808 6.91816 38.4585 6.62148C38.3363 6.3248 38.1569 6.05524 37.9308 5.82821C37.7047 5.60119 37.4361 5.42116 37.1406 5.29843C36.8451 5.17569 36.5284 5.11267 36.2086 5.11296Z" fill="url(#paint0_linear_23_200)"/>
<path d="M28.3435 56.6035C14.1615 56.6035 15.047 50.4293 15.047 50.4293L15.0627 44.0327H28.5966V42.1123H9.68761C9.68761 42.1123 0.612556 43.1455 0.612556 28.7794C0.612556 14.4136 8.53349 14.9231 8.53349 14.9231H13.2607V21.5893C13.2607 21.5893 13.0058 29.5413 21.0552 29.5413H34.4781C34.4781 29.5413 42.0195 29.4189 42.0195 36.8586V49.1595C42.0195 49.1595 43.1647 56.6035 28.3437 56.6035H28.3435ZM20.8811 52.3023C21.2009 52.3026 21.5176 52.2396 21.8131 52.1168C22.1086 51.9941 22.3771 51.8141 22.6033 51.587C22.8294 51.36 23.0087 51.0905 23.131 50.7938C23.2533 50.4971 23.316 50.1791 23.3157 49.8581C23.3161 49.537 23.2533 49.219 23.1311 48.9223C23.0088 48.6256 22.8295 48.356 22.6034 48.1289C22.3772 47.9019 22.1087 47.7218 21.8132 47.5991C21.5176 47.4764 21.2009 47.4133 20.8811 47.4136C20.5612 47.4133 20.2445 47.4763 19.949 47.5991C19.6535 47.7218 19.385 47.9018 19.1588 48.1289C18.9327 48.3559 18.7534 48.6255 18.6311 48.9221C18.5089 49.2188 18.4461 49.5368 18.4464 49.8578C18.4461 50.1789 18.5089 50.4969 18.6311 50.7936C18.7534 51.0902 18.9327 51.3598 19.1588 51.5868C19.385 51.8138 19.6535 51.9939 19.949 52.1166C20.2445 52.2393 20.5612 52.3024 20.8811 52.3021V52.3023Z" fill="url(#paint1_linear_23_200)"/>
</g>
<defs>
<linearGradient id="paint0_linear_23_200" x1="51.1087" y1="5.82946" x2="23.3165" y2="33.2369" gradientUnits="userSpaceOnUse">
<stop stop-color="#387EB8"/>
<stop offset="1" stop-color="#366994"/>
</linearGradient>
<linearGradient id="paint1_linear_23_200" x1="34.1158" y1="23.4987" x2="4.27559" y2="51.5974" gradientUnits="userSpaceOnUse">
<stop stop-color="#FFE052"/>
<stop offset="1" stop-color="#FFC331"/>
</linearGradient>
<clipPath id="clip0_23_200">
<rect width="56" height="56" fill="white" transform="matrix(-1 0 0 1 56.509 0.795471)"/>
</clipPath>
</defs>
</svg>
