<svg width="48" height="68" viewBox="0 0 48 68" fill="none" xmlns="http://www.w3.org/2000/svg">
<g clip-path="url(#clip0_23_203)">
<path d="M47.5185 13.4293L43.2516 61.751L24.0715 67.1262L4.94438 61.7584L0.681885 13.4293H47.5185Z" fill="#E44D26"/>
<path d="M24.1001 63.0175L39.5985 58.674L43.2447 17.3808H24.1001V63.0175Z" fill="#F16529"/>
<path d="M15.8054 29.2357H24.1002V23.3084H9.39746L9.53773 24.8986L10.9789 41.2328H24.1002V35.3055H16.3413L15.8054 29.2357ZM17.1269 44.1966H11.2409L12.0623 53.5035L24.0732 56.8739L24.1002 56.8665V50.6995L24.0745 50.7064L17.5444 48.9239L17.1269 44.1966Z" fill="#EBEBEB"/>
<path d="M5.03931 0.295456H8.01903V3.27148H10.7448V0.295456H13.7248V9.3076H10.745V6.28982H8.01922V9.3076H5.03949L5.03931 0.295456ZM17.643 3.2841H15.0202V0.295456H23.2478V3.2841H20.6233V9.3076H17.6436L17.643 3.2841ZM24.5535 0.295456H27.6604L29.5717 3.46209L31.481 0.295456H34.5893V9.3076H31.6217V4.84069L29.5717 8.045H29.5202L27.469 4.84069V9.3076H24.5535V0.295456ZM36.0722 0.295456H39.0528V6.3288H43.2431V9.3076H36.072L36.0722 0.295456Z" fill="#62FBD7"/>
<path d="M24.08 41.2328H31.3002L30.6194 48.9202L24.0798 50.7045V56.8711L36.1003 53.5035L36.1884 52.502L37.5664 36.8971L37.7095 35.3055H24.08V41.2328ZM24.08 29.2213V29.2357H38.243L38.3605 27.9035L38.6278 24.8986L38.7679 23.3084H24.08V29.2215V29.2213Z" fill="white"/>
</g>
<defs>
<clipPath id="clip0_23_203">
<rect width="47" height="67" fill="white" transform="translate(0.600098 0.295456)"/>
</clipPath>
</defs>
</svg>
