<svg width="48" height="68" viewBox="0 0 48 68" fill="none" xmlns="http://www.w3.org/2000/svg">
<g clip-path="url(#clip0_23_209)">
<path d="M24.1624 67.1262L5.0352 61.7584L0.772705 13.4293H47.6093L43.3424 61.751L24.1624 67.1262Z" fill="#264DE4"/>
<path d="M39.6894 58.674L43.3355 17.3808H24.1909V63.0175L39.6894 58.674Z" fill="#2965F1"/>
<path d="M10.5443 35.3055L11.0698 41.2328H24.191V35.3055H10.5443ZM9.48828 23.3084L10.0213 29.2357H24.191V23.3084H9.48828ZM24.191 50.6995L24.1653 50.7064L17.6353 48.9239L17.2178 44.1966H11.3317L12.1531 53.5035L24.164 56.8739L24.191 56.8665V50.6995Z" fill="#EBEBEB"/>
<path d="M11.7954 0.295456H18.8968V3.29765H14.7652V6.29984H18.8972V9.30185H11.7954V0.295456ZM20.3173 0.295456H27.4189V2.90604H23.2871V3.42812H27.4189V9.43251H20.3175V6.69108H24.4492V6.169H20.3171V0.295456H20.3173ZM28.8393 0.295456H35.9409V2.90604H31.8091V3.42812H35.9409V9.43251H28.8393V6.69108H32.9711V6.169H28.8395V0.295456H28.8393Z" fill="#62FBD7"/>
<path d="M37.8003 35.3055L38.8587 23.3084H24.1708V29.2357H32.4329L31.8994 35.3055H24.1708V41.2328H31.391L30.7103 48.9202L24.1707 50.7045V56.8711L36.1911 53.5035L36.2792 52.502L37.6573 36.8971L37.8003 35.3055Z" fill="white"/>
</g>
<defs>
<clipPath id="clip0_23_209">
<rect width="47" height="67" fill="white" transform="translate(0.690918 0.295456)"/>
</clipPath>
</defs>
</svg>
