<svg width="60" height="55" viewBox="0 0 60 55" fill="none" xmlns="http://www.w3.org/2000/svg">
<path d="M48.928 18.298C48.3001 18.0764 47.6669 17.871 47.0289 17.6822C47.1361 17.2318 47.2347 16.7868 47.3223 16.3496C48.76 9.17044 47.8201 3.38676 44.6099 1.4825C41.532 -0.34305 36.4983 1.5605 31.4146 6.11181C30.9136 6.56117 30.4237 7.02347 29.9454 7.49828C29.6252 7.18255 29.2993 6.87294 28.968 6.56962C23.64 1.70323 18.2996 -0.347792 15.0928 1.56192C12.0177 3.39317 11.1071 8.83023 12.4014 15.6341C12.5302 16.3079 12.6756 16.9783 12.8375 17.6446C12.0815 17.8655 11.3521 18.1007 10.654 18.3511C4.4074 20.5915 0.418213 24.1025 0.418213 27.7444C0.418213 31.5057 4.70078 35.2784 11.2069 37.5661C11.7344 37.7508 12.2662 37.9219 12.802 38.0793C12.628 38.7969 12.4735 39.5194 12.3387 40.2458C11.1048 46.9316 12.0684 52.2402 15.1353 54.0598C18.3028 55.9389 23.6193 54.0076 28.7958 49.3525C29.2156 48.974 29.6261 48.5848 30.027 48.1853C30.545 48.6994 31.0768 49.1986 31.6218 49.6823C36.6364 54.121 41.5887 55.9133 44.6525 54.0887C47.8171 52.2041 48.8457 46.5013 47.5104 39.563C47.4052 39.0195 47.2872 38.4786 47.1566 37.9409C47.5299 37.8271 47.8964 37.71 48.2536 37.5881C55.0174 35.2829 59.4182 31.556 59.4182 27.7444C59.4182 24.0892 55.3002 20.5545 48.928 18.298ZM47.461 35.1272C47.1384 35.2369 46.8074 35.3429 46.47 35.446C45.7233 33.0143 44.7157 30.4286 43.4824 27.7569C44.6592 25.149 45.6281 22.5963 46.3539 20.1804C46.9575 20.3601 47.5431 20.5496 48.1077 20.7494C53.5675 22.6831 56.8978 25.5416 56.8978 27.7444C56.8978 30.0905 53.3011 33.1364 47.461 35.1272ZM45.0379 40.0666C45.6283 43.1345 45.7125 45.9084 45.3214 48.077C44.9701 50.0256 44.2635 51.3246 43.3896 51.845C41.5304 52.9521 37.5541 51.513 33.2658 47.7168C32.7588 47.2672 32.2641 46.8031 31.7822 46.3251C33.4448 44.4548 35.1063 42.2805 36.7279 39.8655C39.5802 39.6052 42.2748 39.1794 44.7185 38.5983C44.8362 39.0851 44.9427 39.5746 45.0379 40.0666ZM20.5326 51.6536C18.716 52.3134 17.2692 52.3324 16.3945 51.8137C14.5335 50.7096 13.7598 46.447 14.8151 40.7295C14.9406 40.0539 15.0842 39.3819 15.2459 38.7145C17.6626 39.2645 20.3376 39.66 23.1966 39.8985C24.8292 42.2615 26.5386 44.4335 28.2614 46.3353C27.8953 46.6998 27.5205 47.0549 27.1374 47.4003C24.8481 49.4587 22.5543 50.9191 20.5326 51.6536ZM12.0223 35.1127C9.14537 34.1011 6.76947 32.7864 5.14098 31.3518C3.6775 30.0628 2.93885 28.7828 2.93885 27.7444C2.93885 25.5343 6.14167 22.7153 11.4837 20.7994C12.132 20.5671 12.8105 20.3478 13.5146 20.142C14.253 22.6124 15.2215 25.1955 16.3902 27.8074C15.2062 30.458 14.224 33.0823 13.4784 35.5819C12.9894 35.4378 12.5039 35.2814 12.0223 35.1127ZM14.8751 15.136C13.7663 9.30676 14.5026 4.90956 16.3558 3.80593C18.3296 2.63046 22.6942 4.30642 27.2946 8.5085C27.5945 8.78314 27.8897 9.06334 28.1798 9.34897C26.4656 11.2426 24.7718 13.3984 23.1537 15.7474C20.3789 16.012 17.7227 16.4368 15.2807 17.0061C15.1302 16.3864 14.995 15.7627 14.8751 15.136ZM40.325 21.6008C39.7482 20.5758 39.15 19.5638 38.5308 18.5654C40.4133 18.8103 42.2169 19.1353 43.9107 19.5327C43.4022 21.2094 42.7685 22.9621 42.0224 24.7592C41.4771 23.6949 40.9112 22.6419 40.325 21.6008ZM29.9466 11.202C31.109 12.4977 32.2734 13.9441 33.4186 15.5136C31.0954 15.4008 28.7684 15.4003 26.4453 15.5122C27.5916 13.9572 28.7659 12.5126 29.9466 11.202ZM19.5015 21.6186C18.9226 22.6513 18.3673 23.6977 17.8359 24.7571C17.1021 22.9664 16.474 21.2056 15.9613 19.5052C17.6446 19.1178 19.4397 18.8011 21.3102 18.5606C20.6841 19.5652 20.081 20.5849 19.5015 21.6186ZM21.3639 37.1125C19.4314 36.8906 17.6093 36.5902 15.9265 36.2133C16.4473 34.4825 17.0892 32.6842 17.8389 30.8551C18.3724 31.9153 18.93 32.9624 19.5114 33.9956C20.1092 35.0577 20.7283 36.098 21.3639 37.1125ZM30.0162 44.4693C28.8214 43.1435 27.6299 41.6766 26.4663 40.0991C27.596 40.1446 28.7477 40.1678 29.9182 40.1678C31.1208 40.1678 32.3096 40.1401 33.4796 40.0865C32.3308 41.6925 31.1708 43.1615 30.0162 44.4693ZM42.0462 30.7617C42.8348 32.611 43.4995 34.3998 44.0273 36.1009C42.3167 36.5025 40.4698 36.8259 38.5237 37.066C39.1473 36.0491 39.7512 35.0195 40.3349 33.9778C40.9285 32.919 41.499 31.8467 42.0462 30.7617ZM38.1517 32.6824C37.258 34.2794 36.314 35.8462 35.3213 37.3802C33.5231 37.5112 31.7209 37.5763 29.9182 37.5753C28.0821 37.5753 26.2962 37.5165 24.5764 37.4018C23.5578 35.8713 22.5958 34.3018 21.6926 32.6966C20.7935 31.0998 19.954 29.4685 19.1754 27.8062C19.952 26.1435 20.7892 24.5115 21.6852 22.9135C22.5808 21.3151 23.5348 19.7526 24.5458 18.2287C26.3003 18.0922 28.0996 18.021 29.918 18.021C31.7447 18.021 33.5465 18.0929 35.3006 18.2304C36.3013 19.752 37.2495 21.3094 38.1434 22.8998C39.0423 24.4942 39.8906 26.1183 40.6869 27.7695C39.8988 29.4376 39.0532 31.0762 38.1517 32.6824ZM43.3511 3.72864C45.3267 4.90079 46.095 9.62754 44.8537 15.8261C44.7745 16.2216 44.6855 16.6244 44.5887 17.0329C42.1407 16.4515 39.4827 16.0193 36.6998 15.7507C35.0786 13.3758 33.3988 11.2167 31.7124 9.34754C32.1544 8.9093 32.6068 8.48241 33.0694 8.06729C37.4253 4.16796 41.4963 2.62833 43.3511 3.72864ZM29.9182 22.3246C32.8279 22.3246 35.1867 24.7512 35.1867 27.7444C35.1867 30.7375 32.8279 33.1641 29.9182 33.1641C27.0085 33.1641 24.6497 30.7375 24.6497 27.7444C24.6497 24.7512 27.0085 22.3246 29.9182 22.3246Z" fill="#00D8FF"/>
</svg>
